<svg width="40" height="40" viewBox="0 0 40 40" fill="none" xmlns="http://www.w3.org/2000/svg">
<path d="M22.5005 1.24748C21.128 1.24748 19.9988 2.37427 19.9988 3.7491C19.9988 4.25463 20.1548 4.72471 20.4146 5.11921C17.046 5.50898 14.1853 6.84365 12.0759 8.95314C9.67344 11.3556 8.27027 14.7407 8.13562 18.747H6.87418C6.70856 18.7483 6.55019 18.8151 6.43375 18.9329C6.3173 19.0507 6.25227 19.2098 6.2529 19.3754C6.2529 21.0951 7.65608 22.4983 9.3758 22.4983H11.1711C10.5974 22.9334 10.0588 23.4128 9.56006 23.9322L8.12853 25.3661L7.31828 24.5558C7.20106 24.4397 7.04272 24.3745 6.87772 24.3745C6.71271 24.3745 6.55438 24.4397 6.43716 24.5558L1.43391 29.5591C1.31707 29.6764 1.25146 29.8352 1.25146 30.0008C1.25146 30.1664 1.31707 30.3252 1.43391 30.4425L9.56006 38.5687C9.67738 38.6855 9.83622 38.7511 10.0018 38.7511C10.1674 38.7511 10.3262 38.6855 10.4435 38.5687L15.4421 33.5678C15.5006 33.5096 15.5471 33.4404 15.5788 33.3642C15.6105 33.288 15.6269 33.2063 15.6269 33.1237C15.6269 33.0411 15.6105 32.9594 15.5788 32.8832C15.5471 32.807 15.5006 32.7378 15.4421 32.6796L14.6342 31.8741L15.4421 31.0662C16.0397 30.4685 16.5594 30.0032 18.1256 30.0032H26.873C28.3281 30.0032 29.2518 29.1315 29.8164 28.5646L33.0526 25.333C33.8157 24.5676 33.9574 23.4054 33.4684 22.4983H35.6251C37.3472 22.4983 38.7504 21.0951 38.7504 19.3754C38.7507 19.2932 38.7348 19.2117 38.7036 19.1357C38.6725 19.0596 38.6266 18.9904 38.5687 18.9321C38.5108 18.8737 38.442 18.8273 38.3661 18.7956C38.2903 18.7638 38.209 18.7473 38.1268 18.747H36.863C36.7307 14.743 35.3275 11.3556 32.9227 8.95314C30.8156 6.84601 27.9549 5.50898 24.584 5.11921C24.8542 4.71331 24.9988 4.23674 24.9997 3.7491C24.9997 2.37427 23.8729 1.24748 22.5005 1.24748ZM22.5005 2.49947C23.1973 2.49947 23.7525 3.04988 23.7525 3.7491C23.7525 4.44597 23.1973 4.99873 22.5005 4.99873C22.3357 4.99999 22.1723 4.96847 22.0199 4.90599C21.8674 4.84352 21.7289 4.75135 21.6124 4.63484C21.4959 4.51833 21.4037 4.37981 21.3412 4.22734C21.2787 4.07488 21.2472 3.91151 21.2485 3.74674C21.2485 3.04988 21.8036 2.49947 22.5005 2.49947ZM22.5005 6.24837C26.5045 6.24837 29.7668 7.55942 32.0416 9.83426C34.196 11.9863 35.4669 15.0312 35.5992 18.747H31.8762C31.0235 18.7281 31.0235 20.0156 31.8762 19.999H37.4015C37.2673 20.363 37.0254 20.6775 36.7081 20.9007C36.3908 21.1239 36.0131 21.2453 35.6251 21.2487H9.37344C8.98544 21.2502 8.60669 21.1303 8.29024 20.9058C7.9738 20.6813 7.73554 20.3634 7.60884 19.9967H26.2494C27.1021 20.0156 27.1021 18.7281 26.2494 18.747H9.40178C9.53407 15.0336 10.8073 11.9863 12.9593 9.83426C15.2365 7.55942 18.4988 6.24837 22.5028 6.24837H22.5005ZM28.751 18.747C27.9006 18.7281 27.9006 20.0156 28.751 19.999H29.3746C30.225 20.0156 30.225 18.7281 29.3746 18.747H28.751ZM15.0027 22.4983H21.2508C21.9548 22.4983 22.5005 23.0463 22.5005 23.7503C22.5005 24.4542 21.9548 24.9999 21.2485 24.9999H16.8783C16.0279 24.981 16.0279 26.2684 16.8783 26.2519H26.8754C27.0407 26.2519 27.2013 26.1834 27.3195 26.0653L30.5581 22.829C30.7736 22.6179 31.0632 22.4997 31.3648 22.4997C31.6664 22.4997 31.9561 22.6179 32.1715 22.829C32.2807 22.9333 32.3676 23.0587 32.427 23.1976C32.4864 23.3364 32.517 23.4859 32.517 23.6369C32.517 23.7879 32.4864 23.9374 32.427 24.0762C32.3676 24.2151 32.2807 24.3405 32.1715 24.4448L28.9352 27.6834C28.3825 28.2362 27.8604 28.7488 26.8754 28.7488H18.1256C16.2594 28.7488 15.2318 29.5118 14.5586 30.1851L13.7507 30.9906L9.00965 26.2495L10.4435 24.8133C11.6955 23.5637 12.7113 22.4983 15.0027 22.4983ZM23.4005 22.4983H29.1171L26.6155 24.9999H23.4005C23.6178 24.629 23.7501 24.2062 23.7501 23.7479C23.7501 23.292 23.6178 22.8692 23.4005 22.4983ZM6.87418 25.8858C9.28367 28.2976 11.7239 30.7331 14.1192 33.1237L10.0042 37.2411L2.7615 30.0008L6.87418 25.8858Z" fill="black"/>
</svg>
