<svg width="40" height="40" viewBox="0 0 40 40" fill="none" xmlns="http://www.w3.org/2000/svg">
<path d="M38.6147 27.7244V16.406C38.6147 16.2974 38.5715 16.1932 38.4947 16.1164C38.4179 16.0395 38.3137 15.9964 38.205 15.9964H33.2443V12.757H35.0268C35.088 12.7569 35.1485 12.7432 35.2037 12.7167C35.2589 12.6903 35.3075 12.6518 35.3459 12.6041C35.3842 12.5564 35.4114 12.5007 35.4254 12.4411C35.4394 12.3815 35.4399 12.3195 35.4268 12.2597L34.508 8.06872C34.4432 7.77949 34.2821 7.52081 34.0512 7.33501C33.8203 7.14921 33.5331 7.04728 33.2367 7.0459H30.709C30.4127 7.04731 30.1255 7.14924 29.8946 7.33501C29.6637 7.52079 29.5026 7.77941 29.4378 8.0686L28.5189 12.2597C28.5058 12.3195 28.5063 12.3815 28.5203 12.4411C28.5343 12.5007 28.5615 12.5564 28.5999 12.6041C28.6383 12.6518 28.6868 12.6903 28.7421 12.7167C28.7973 12.7432 28.8577 12.7569 28.9189 12.757H30.7015V15.9964H27.9678C27.8591 15.9964 27.7549 16.0395 27.6781 16.1164C27.6013 16.1932 27.5581 16.2974 27.5581 16.406C27.5581 16.5147 27.6013 16.6189 27.6781 16.6957C27.7549 16.7725 27.8591 16.8157 27.9678 16.8157H37.7954V20.3197H31.973C31.8644 20.3197 31.7602 20.3628 31.6834 20.4396C31.6066 20.5165 31.5634 20.6207 31.5634 20.7293C31.5634 20.838 31.6066 20.9422 31.6834 21.019C31.7602 21.0958 31.8644 21.139 31.973 21.139H37.7954V24.643H32.7462C32.6918 24.642 32.6378 24.652 32.5873 24.6721C32.5368 24.6923 32.4909 24.7223 32.4521 24.7604C32.4133 24.7986 32.3825 24.844 32.3615 24.8942C32.3405 24.9443 32.3296 24.9982 32.3296 25.0525C32.3296 25.1069 32.3405 25.1608 32.3615 25.2109C32.3825 25.2611 32.4133 25.3065 32.4521 25.3447C32.4909 25.3828 32.5368 25.4128 32.5873 25.433C32.6378 25.4531 32.6918 25.4631 32.7462 25.4621H34.7765C34.8099 25.4824 34.8461 25.4976 34.884 25.5074C36.6463 25.9386 36.5109 27.6133 36.5046 27.6825C36.4987 27.7395 36.5049 27.7971 36.5227 27.8516C36.5405 27.9061 36.5695 27.9563 36.6079 27.9988C36.6463 28.0414 36.6932 28.0754 36.7456 28.0987C36.798 28.122 36.8547 28.134 36.912 28.134H38.2048C38.2586 28.134 38.3119 28.1235 38.3617 28.1029C38.4114 28.0823 38.4566 28.0522 38.4946 28.0141C38.5327 27.9761 38.5629 27.9309 38.5835 27.8812C38.6041 27.8315 38.6147 27.7782 38.6147 27.7244ZM30.2382 8.24413C30.2622 8.13704 30.3218 8.04125 30.4073 7.9724C30.4928 7.90355 30.5991 7.86572 30.7088 7.86508H33.2367C33.3464 7.86572 33.4527 7.90355 33.5382 7.9724C33.6237 8.04125 33.6833 8.13704 33.7073 8.24413L34.5169 11.9377H29.4282L30.2382 8.24413ZM31.5206 12.757H32.4249V15.9964H31.5206V12.757ZM37.3235 27.3147C37.2776 26.6165 36.9807 25.9585 36.4876 25.4621H37.7954V27.3147H37.3235Z" fill="black"/>
<path d="M1.79492 32.9536H3.46551C3.56679 32.9535 3.66445 32.9159 3.73966 32.848C3.81488 32.7802 3.86235 32.6869 3.87292 32.5862C3.88562 32.4656 4.2121 29.6264 6.67774 29.0626C6.69115 29.0595 6.70315 29.054 6.71586 29.0497H25.9509C25.9627 29.0534 25.9729 29.0584 25.9848 29.0615C28.4562 29.6222 28.7833 32.4659 28.7959 32.5859C28.8061 32.6868 28.8534 32.7804 28.9287 32.8484C29.004 32.9165 29.1019 32.9541 29.2034 32.9541H30.874C30.9278 32.9541 30.981 32.9435 31.0307 32.923C31.0804 32.9024 31.1256 32.8722 31.1636 32.8342C31.2017 32.7962 31.2319 32.751 31.2524 32.7013C31.273 32.6516 31.2836 32.5984 31.2836 32.5446V23.5599C31.2827 22.7344 30.9761 21.9386 30.4229 21.326C29.0648 19.8148 27.2023 18.5987 26.2496 18.0275C26.4007 17.8855 26.521 17.714 26.6033 17.5238C26.6856 17.3335 26.7281 17.1284 26.7282 16.921C26.7282 16.5468 26.6503 16.1766 26.4997 15.834C26.3491 15.4913 26.1289 15.1837 25.8532 14.9307V12.6601C25.8525 12.0467 25.6085 11.4587 25.1748 11.025C24.7411 10.5913 24.1531 10.3474 23.5397 10.3467H9.12939C8.51606 10.3474 7.92807 10.5914 7.49439 11.0251C7.06072 11.4588 6.81678 12.0468 6.8161 12.6601V14.9307C6.54035 15.1837 6.32018 15.4913 6.16957 15.834C6.01896 16.1766 5.94117 16.5468 5.94115 16.921C5.94123 17.1284 5.98373 17.3335 6.06603 17.5238C6.14834 17.714 6.26871 17.8855 6.41974 18.0275C5.4668 18.5987 3.60457 19.8148 2.24645 21.326C1.69333 21.9386 1.38671 22.7344 1.38574 23.5599V32.544C1.38571 32.6525 1.4288 32.7567 1.50552 32.8335C1.58225 32.9103 1.68635 32.9535 1.79492 32.9536ZM30.4648 28.2304H2.20457V25.5795H30.4648V28.2304ZM3.11692 32.1344H2.20457V29.0497H4.85433C3.66692 30.0036 3.25115 31.4561 3.11692 32.1344ZM29.5522 32.1344C29.4181 31.4561 29.0023 30.0036 27.8149 29.0497H30.4646V32.1344H29.5522ZM25.2035 17.627H16.7447V17.038C16.736 16.4737 16.9447 15.9277 17.3276 15.5131C17.7104 15.0984 18.2381 14.8469 18.8013 14.8107C18.8443 14.8084 18.888 14.8073 18.9324 14.8073H22.5036C22.5173 14.8066 23.8448 14.7569 24.8683 15.2434C25.1821 15.3969 25.4463 15.6357 25.6305 15.9325C25.8147 16.2293 25.9115 16.572 25.9097 16.9213C25.9095 17.1084 25.835 17.2879 25.7026 17.4202C25.5702 17.5525 25.3907 17.6269 25.2035 17.627ZM9.12939 11.1664H23.5402C23.9363 11.1669 24.3161 11.3244 24.5962 11.6045C24.8763 11.8847 25.0339 12.2644 25.0343 12.6606V14.4213C23.9049 13.9517 22.613 13.9835 22.4782 13.9881H18.9321C18.8736 13.9881 18.8162 13.9895 18.7599 13.9924C18.2621 14.0188 17.779 14.1701 17.3552 14.4324C16.9313 14.6947 16.5804 15.0595 16.3347 15.4932C16.089 15.0595 15.7381 14.6947 15.3144 14.4324C14.8906 14.1702 14.4075 14.0188 13.9099 13.9924C13.8533 13.9895 13.7958 13.988 13.7373 13.9881H10.1913C10.0567 13.9835 8.76457 13.9516 7.63504 14.4213V12.6606C7.63547 12.2644 7.79306 11.8846 8.07322 11.6045C8.35338 11.3243 8.73322 11.1668 9.12939 11.1664ZM7.80151 15.2432C8.64927 14.8401 9.71515 14.8055 10.0561 14.8055C10.1248 14.8055 10.164 14.8069 10.1662 14.807H13.7373C13.7817 14.807 13.8255 14.8082 13.8687 14.8104C14.4318 14.8467 14.9594 15.0983 15.3423 15.5129C15.7251 15.9275 15.9337 16.4735 15.925 17.0377V17.6268H7.46621C7.27908 17.6265 7.09968 17.5521 6.96735 17.4198C6.83503 17.2874 6.76058 17.1081 6.76033 16.9209C6.75858 16.5717 6.85534 16.229 7.03951 15.9322C7.22367 15.6355 7.48777 15.3966 7.80151 15.2432ZM2.85527 21.8736C4.45268 20.0962 6.88115 18.6972 7.34221 18.44C7.38315 18.4433 7.42457 18.4462 7.46598 18.4462H25.2035C25.2453 18.4462 25.2859 18.4433 25.3273 18.44C25.7883 18.6973 28.2168 20.0962 29.8141 21.8736C30.232 22.336 30.4638 22.9367 30.4648 23.5599V24.7599H2.20457V23.5599C2.2057 22.9367 2.4375 22.336 2.85527 21.8736Z" fill="black"/>
<path d="M32.9687 18.8798C33.195 18.8798 33.3784 18.6964 33.3784 18.4702C33.3784 18.244 33.195 18.0605 32.9687 18.0605C32.7425 18.0605 32.5591 18.244 32.5591 18.4702C32.5591 18.6964 32.7425 18.8798 32.9687 18.8798Z" fill="black"/>
<path d="M32.9687 23.3984C33.195 23.3984 33.3784 23.215 33.3784 22.9887C33.3784 22.7625 33.195 22.5791 32.9687 22.5791C32.7425 22.5791 32.5591 22.7625 32.5591 22.9887C32.5591 23.215 32.7425 23.3984 32.9687 23.3984Z" fill="black"/>
</svg>
