<svg width="40" height="40" viewBox="0 0 40 40" fill="none" xmlns="http://www.w3.org/2000/svg">
<path d="M20 37.6194C19.7945 37.6195 19.5925 37.5656 19.4144 37.4629C12.8189 33.6544 7.88878 29.6812 4.64912 25.5736H0.585719C0.262246 25.5736 0 25.3114 0 24.9879C0 24.6643 0.262246 24.4021 0.585719 24.4021H3.77359C1.36105 20.9865 0.104883 17.4814 0.0196021 13.9043C-0.0412346 11.3515 0.772134 8.82763 2.30992 6.79753C3.82881 4.79234 5.98784 3.34702 8.38937 2.7278C8.46385 2.70856 8.5414 2.70419 8.61757 2.71494C8.69374 2.72569 8.76705 2.75134 8.8333 2.79043C8.89955 2.82953 8.95746 2.88129 9.00369 2.94277C9.04993 3.00425 9.0836 3.07424 9.10278 3.14874C9.122 3.22322 9.12637 3.30077 9.11561 3.37694C9.10486 3.45312 9.07921 3.52643 9.04012 3.59268C9.00103 3.65894 8.94927 3.71685 8.88779 3.7631C8.82632 3.80934 8.75634 3.84303 8.68184 3.86222C6.53506 4.41569 4.60375 5.70934 3.24371 7.50492C1.86532 9.32471 1.13622 11.5874 1.19073 13.8764C1.27585 17.4509 2.6248 20.9667 5.22133 24.4043C8.65638 24.4561 10.5835 25.4277 12.4486 26.3682C14.4257 27.3652 16.2933 28.3069 20 28.3069C23.7066 28.3069 25.5742 27.3652 27.5514 26.3682C29.4161 25.4278 31.3428 24.4565 34.7766 24.4044C37.3677 20.9757 38.7245 17.434 38.8092 13.8764C38.875 11.1164 37.8511 8.51142 35.9264 6.5413C34.0425 4.61311 31.5311 3.55132 28.8546 3.55132H28.849C25.4626 3.5532 22.3384 5.2592 20.4918 8.11501C20.4387 8.19715 20.3659 8.26467 20.2799 8.31143C20.194 8.35819 20.0978 8.38268 20 8.38268C19.9021 8.38268 19.8059 8.35819 19.72 8.31143C19.6341 8.26467 19.5612 8.19715 19.5081 8.11501C17.6615 5.25928 14.5374 3.55327 11.1509 3.55132C10.9956 3.55128 10.8466 3.48953 10.7368 3.37966C10.627 3.26978 10.5653 3.12079 10.5654 2.96545C10.5654 2.8101 10.6271 2.66114 10.737 2.55133C10.8469 2.44151 10.9959 2.37984 11.1512 2.37988H11.1515C14.6509 2.38176 17.899 4.01076 19.9999 6.77762C22.1007 4.01068 25.3489 2.38176 28.8483 2.37988H28.8546C31.8494 2.37988 34.658 3.56678 36.7643 5.72262C38.9115 7.92047 40.0537 10.8261 39.9803 13.9043C39.8955 17.4653 38.6342 20.9925 36.2287 24.4022H39.4142C39.7377 24.4022 39.9999 24.6644 39.9999 24.9879C39.9999 25.3115 39.7377 25.5737 39.4142 25.5737H35.0675C31.7289 25.5737 29.9559 26.4677 28.0788 27.4142C26.0663 28.429 23.9853 29.4784 20 29.4784C16.0147 29.4784 13.9336 28.429 11.9211 27.4142C10.2955 26.5945 8.74814 25.8142 6.1941 25.6197C9.33402 29.333 13.9429 32.9507 20.0004 36.4485C25.1546 33.4719 29.3121 30.3656 32.3568 27.2161C32.4101 27.1604 32.474 27.1159 32.5446 27.085C32.6152 27.0541 32.6913 27.0374 32.7684 27.036C32.8455 27.0345 32.9221 27.0483 32.9938 27.0765C33.0656 27.1047 33.1311 27.1469 33.1865 27.2004C33.2419 27.254 33.2862 27.318 33.3169 27.3888C33.3475 27.4595 33.3639 27.5356 33.3651 27.6127C33.3662 27.6898 33.3522 27.7664 33.3237 27.838C33.2952 27.9097 33.2528 27.975 33.199 28.0302C30.0786 31.2581 25.8348 34.4318 20.5855 37.4629C20.4075 37.5656 20.2056 37.6195 20 37.6194ZM20.0075 27.1355C15.1884 27.1355 13.1092 25.7303 11.975 24.7064C9.26615 22.261 7.71462 18.4244 7.58202 15.8984C7.57774 15.8168 7.59054 15.7353 7.6196 15.6591C7.64866 15.5828 7.69335 15.5135 7.75078 15.4555C7.80814 15.3974 7.87704 15.352 7.95302 15.3222C8.02901 15.2924 8.1104 15.2788 8.19194 15.2824C9.4685 15.337 10.9037 15.6432 12.3156 16.1269C12.3674 14.7105 12.617 13.386 13.0346 12.3382C13.0635 12.2657 13.1066 12.1997 13.1613 12.1441C13.2161 12.0885 13.2814 12.0444 13.3534 12.0144C13.4254 11.9844 13.5027 11.9691 13.5808 11.9694C13.6588 11.9697 13.736 11.9855 13.8078 12.0161C14.7867 12.4321 15.8201 13.0627 16.8254 13.855C17.5892 12.1775 18.5913 10.7127 19.5874 9.72402C19.6971 9.61514 19.8454 9.55404 20 9.55404C20.1546 9.55404 20.3029 9.61514 20.4126 9.72402C21.4911 10.7946 22.447 12.2671 23.1639 13.8635C24.1726 13.0672 25.2099 12.4336 26.1922 12.0161C26.264 11.9855 26.3412 11.9697 26.4192 11.9694C26.4973 11.9691 26.5746 11.9844 26.6466 12.0144C26.7187 12.0444 26.784 12.0885 26.8387 12.1441C26.8935 12.1997 26.9366 12.2657 26.9655 12.3382C27.3831 13.386 27.6326 14.7105 27.6844 16.1269C29.0964 15.6432 30.5316 15.337 31.8081 15.2824C31.8897 15.2788 31.9711 15.2923 32.0471 15.3221C32.1231 15.3519 32.192 15.3974 32.2493 15.4555C32.3067 15.5135 32.3514 15.5828 32.3805 15.6591C32.4095 15.7354 32.4223 15.8169 32.4181 15.8984C32.2855 18.4244 30.7559 22.2856 28.0251 24.7064C26.8266 25.7688 24.8265 27.1355 20.0075 27.1355ZM24.4915 18.9177C24.5037 19.1174 24.5098 19.314 24.5098 19.5076C24.5098 21.6399 23.519 23.7425 21.4885 25.9039C24.0584 25.7085 25.9078 25.0395 27.24 23.8368C29.4534 21.8386 30.8467 18.7331 31.1788 16.5082C29.1948 16.7402 26.5759 17.609 24.4915 18.9177ZM8.82116 16.5083C9.15323 18.7332 10.5465 21.8387 12.76 23.8369C14.0911 25.0385 15.9382 25.7074 18.5049 25.9034C17.9599 25.3288 17.499 24.7703 17.1109 24.2158C17.0225 24.0885 16.9882 23.9314 17.0154 23.7788C17.0427 23.6263 17.1292 23.4908 17.2562 23.4019C17.3831 23.3131 17.5401 23.2781 17.6928 23.3048C17.8454 23.3314 17.9813 23.4175 18.0706 23.5441C18.4198 24.0432 18.8366 24.5488 19.3304 25.0718C19.0926 22.8758 18.3518 21.2392 17.0839 20.0946C16.9479 19.9721 16.8086 19.8533 16.666 19.7386C16.6896 20.3336 16.8035 20.9296 17.0058 21.5136C17.0567 21.6604 17.0471 21.8214 16.9793 21.9611C16.9115 22.1009 16.7909 22.2079 16.6441 22.2588C16.4973 22.3096 16.3363 22.3001 16.1966 22.2323C16.0568 22.1644 15.9498 22.0438 15.8989 21.8971C15.6276 21.114 15.4901 20.3101 15.4901 19.5077C15.4901 19.3114 15.4957 19.1142 15.5067 18.9168C13.4226 17.6086 10.8047 16.7401 8.82116 16.5083ZM16.7347 18.3288C17.1459 18.6162 17.5268 18.9161 17.8689 19.2248C19.4151 20.6207 20.2888 22.59 20.5225 25.2207C22.3367 23.326 23.2603 21.5224 23.3337 19.7386C23.1912 19.8533 23.052 19.9719 22.9161 20.0944C22.495 20.4745 22.127 20.9167 21.8222 21.4086C21.7399 21.5397 21.6091 21.6329 21.4584 21.6678C21.3077 21.7028 21.1492 21.6767 21.0177 21.5952C20.8861 21.5137 20.7922 21.3835 20.7563 21.233C20.7204 21.0825 20.7456 20.9239 20.8263 20.7918C21.1891 20.206 21.6282 19.6789 22.1311 19.2249C22.4723 18.9169 22.8522 18.6178 23.2622 18.331C22.9213 15.6068 21.4875 12.7065 19.9994 10.9969C18.5225 12.6858 17.0719 15.5373 16.7347 18.3288ZM23.6248 14.9968C23.9464 15.877 24.1911 16.7738 24.3408 17.6443C25.0261 17.2461 25.7633 16.8831 26.5226 16.5672C26.5134 15.3939 26.3599 14.2846 26.0816 13.3603C25.2806 13.7679 24.4313 14.3328 23.6248 14.9968ZM13.4775 16.5673C14.233 16.8817 14.9668 17.2428 15.6492 17.6386C15.798 16.7373 16.0446 15.8425 16.3606 14.9848C15.5585 14.3261 14.7145 13.7655 13.9185 13.3604C13.6401 14.2847 13.4867 15.3939 13.4775 16.5673Z" fill="black"/>
</svg>
