<svg width="40" height="40" viewBox="0 0 40 40" fill="none" xmlns="http://www.w3.org/2000/svg">
<g clip-path="url(#clip0_2103_290)">
<path d="M39.2187 23.6632H35.7085C35.0396 23.6632 34.3917 23.941 33.9306 24.4256L28.8281 29.7885V19.5303H28.9062C30.1986 19.5303 31.2499 18.4789 31.2499 17.1865C31.2499 15.8941 30.1986 14.8428 28.9062 14.8428H28.8281V10.625C28.8281 10.1935 28.4783 9.84373 28.0468 9.84373C27.6153 9.84373 27.2656 10.1935 27.2656 10.625V14.8428H22.6053L19.4332 13.3392C19.4131 13.327 19.3926 13.3151 19.3713 13.3044L19.0319 13.1372C21.1328 12.8573 22.7588 11.0552 22.7588 8.87944C22.7588 6.50999 20.8313 4.58257 18.4619 4.58257C16.0928 4.58257 14.1651 6.50999 14.1651 8.87944C14.1651 9.92029 14.5373 10.8755 15.1553 11.6198C14.6759 11.5994 14.1966 11.6612 13.7381 11.8026L12.5424 11.2128C10.4721 10.1919 7.95717 11.0455 6.93631 13.1158L4.23554 18.5925C3.84554 19.3829 3.78937 20.2768 4.07655 21.1099C4.36405 21.943 4.95968 22.6122 5.75374 22.9943L6.60061 23.4014C6.15999 24.9151 6.3321 26.5517 7.11241 27.9626L7.04342 28.0316C7.04342 28.0319 7.0428 28.0321 7.0428 28.0321C7.04251 28.0324 7.04223 28.0328 7.04194 28.0331L3.28249 31.7925C3.27788 31.7971 3.27304 31.8008 3.26843 31.805L1.3739 33.6995C1.06906 34.0048 1.06906 34.4995 1.3739 34.8046L4.96452 38.395C4.97952 38.4102 4.99538 38.424 5.01155 38.4374H0.781248C0.349765 38.4374 0 38.7872 0 39.2187C0 39.6502 0.349765 39.9999 0.781248 39.9999H8.28123C9.02858 39.9999 9.73357 39.7109 10.2661 39.1863L15.9528 33.5818C16.1479 33.3887 16.4115 33.2806 16.6861 33.2812H24.8342C26.6308 33.2812 28.3715 32.5347 29.6099 31.2331L35.0625 25.5026C35.146 25.4152 35.2462 25.3457 35.3572 25.298C35.4683 25.2504 35.5878 25.2257 35.7086 25.2255H38.4374V39.2187C38.4374 39.6502 38.7874 39.9999 39.2187 39.9999C39.6502 39.9999 39.9999 39.6502 39.9999 39.2187V24.4445C39.9999 24.013 39.6502 23.6632 39.2187 23.6632ZM29.6874 17.1865C29.6874 17.6172 29.3371 17.9678 28.9062 17.9678H22.7041L23.0548 16.4053H28.9062C29.3368 16.4053 29.6874 16.7557 29.6874 17.1865ZM18.4618 6.14499C19.9697 6.14499 21.1962 7.37155 21.1962 8.87936C21.1962 10.3869 19.9697 11.6137 18.4618 11.6137C16.9543 11.6137 15.7275 10.3869 15.7275 8.87936C15.7275 7.37155 16.9543 6.14499 18.4618 6.14499ZM16.1285 13.4476L18.6096 14.671C18.6355 14.6875 18.6627 14.703 18.6911 14.7165L21.5304 16.0623L21.1795 17.6254L18.0218 16.1282C18.0169 16.1261 18.0117 16.1243 18.0068 16.1221C17.9996 16.1184 17.9928 16.1139 17.9855 16.1105L16.2554 15.2621C16.0698 15.1741 15.8569 15.1628 15.663 15.2305C15.4691 15.2983 15.3096 15.4398 15.2192 15.6242C15.1287 15.8087 15.1146 16.0214 15.1798 16.2162C15.245 16.411 15.3843 16.5723 15.5675 16.6652L16.5945 17.1686L14.5818 21.25H9.35545L12.6151 14.6402C13.255 13.3426 14.8309 12.8076 16.1285 13.4476ZM9.80256 29.6874L8.6978 28.5824C8.82307 28.4328 8.88774 28.2417 8.87904 28.0468H10.4422C10.437 28.659 10.2115 29.2361 9.80256 29.6874ZM11.1701 25.1025C10.7904 25.4821 10.549 25.9631 10.4705 26.4843H8.16069C7.82734 25.5043 7.84992 24.4382 8.22444 23.4732C8.25296 23.4349 8.27791 23.3942 8.29897 23.3514C8.32975 23.2873 8.35022 23.221 8.36272 23.1545C8.41827 23.0378 8.47896 22.9237 8.54459 22.8125H14.6472L13.8659 24.375H12.9263C12.2629 24.375 11.639 24.6334 11.1701 25.1025ZM16.224 26.8685L17.7865 26.4486V28.5937H16.224V26.8685ZM17.7865 24.8306L15.9722 25.3182C15.8378 25.0856 15.6553 24.8842 15.437 24.7274L16.3943 22.8125H16.6861C17.2928 22.8125 17.7865 23.3062 17.7865 23.9126V24.8306ZM11.8511 12.6141L12.1109 12.7422C11.7411 13.0868 11.4371 13.4958 11.2136 13.9493L10.5215 15.3528L8.11889 14.2501L8.33764 13.807C8.97733 12.5094 10.5536 11.9743 11.8511 12.6141ZM5.5535 20.6003C5.47903 20.3863 5.44802 20.1596 5.46228 19.9335C5.47654 19.7073 5.53579 19.4863 5.63655 19.2834L7.42764 15.6522L9.82998 16.7547L7.41147 21.6589L7.2278 21.9693L6.43092 21.586C6.01561 21.3864 5.70397 21.036 5.5535 20.6003ZM7.5953 29.6896L8.69998 30.7943L6.03124 33.4631L4.92655 32.3584L7.5953 29.6896ZM3.03124 34.252L3.8207 33.4624L4.96421 34.6059C5.3228 34.9645 5.52022 35.4409 5.52022 35.9481C5.52022 36.1809 5.47843 36.4077 5.3985 36.6195L3.03124 34.252ZM9.1692 38.0734C8.93289 38.3072 8.61368 38.4381 8.28123 38.4374H6.02233C6.03819 38.4237 6.05405 38.4099 6.06936 38.395C6.72303 37.7413 7.0828 36.8725 7.0828 35.9481C7.0828 35.555 7.01717 35.1724 6.89241 34.812L10.8215 30.8825C11.5848 30.1189 12.0053 29.1042 12.0053 28.0246V26.8588C12.0053 26.6128 12.1011 26.3814 12.2751 26.2075C12.3603 26.1217 12.4618 26.0536 12.5736 26.0073C12.6854 25.961 12.8053 25.9374 12.9263 25.9378H14.3429C14.4274 25.9379 14.5084 25.9716 14.5681 26.0314C14.6278 26.0912 14.6614 26.1722 14.6615 26.2567V32.5002C14.6615 32.5502 14.6667 32.5992 14.6756 32.6467L9.1692 38.0734ZM16.6861 31.7187H16.224V30.1562H17.8384C18.8571 30.1562 19.7259 30.8093 20.0482 31.7187H16.6861ZM21.6659 31.7187C21.4062 30.4431 20.5227 29.3917 19.349 28.8976V23.9126C19.349 22.4444 18.1543 21.25 16.6861 21.25H16.3238L18.0017 17.8479L21.3915 19.4549C21.4187 19.468 21.4468 19.4784 21.4751 19.4882C21.48 19.4897 21.485 19.4909 21.4895 19.4925C21.5011 19.4961 21.5124 19.5001 21.524 19.5032C21.5292 19.5047 21.5347 19.5053 21.5399 19.5065C21.5457 19.5081 21.5511 19.5099 21.557 19.5114C21.5701 19.5141 21.5836 19.5157 21.5966 19.5178C21.6089 19.5199 21.6208 19.5224 21.6329 19.5239C21.665 19.5279 21.697 19.5303 21.7288 19.5303H27.2656V31.0898C26.5265 31.4972 25.6887 31.7188 24.8342 31.7188L21.6659 31.7187ZM28.0468 8.0603C28.2522 8.0603 28.4538 7.9767 28.5992 7.83139C28.745 7.68443 28.8272 7.48606 28.8281 7.27905C28.8281 7.07334 28.7445 6.87194 28.5992 6.72671C28.4538 6.58046 28.2522 6.4978 28.0468 6.4978C27.8414 6.4978 27.6398 6.58046 27.4945 6.72671C27.3485 6.87354 27.2662 7.07199 27.2656 7.27905C27.2665 7.48606 27.3487 7.68443 27.4945 7.83139C27.6413 7.97734 27.8398 8.05957 28.0468 8.0603ZM35.3124 9.37498C37.897 9.37498 39.9999 7.27202 39.9999 4.68749C39.9999 2.10265 37.897 0 35.3124 0C32.7276 0 30.6249 2.10265 30.6249 4.68749C30.6249 7.27202 32.7276 9.37498 35.3124 9.37498ZM35.3124 1.5625C37.0355 1.5625 38.4374 2.96445 38.4374 4.68749C38.4374 6.41053 37.0355 7.81248 35.3124 7.81248C33.5894 7.81248 32.1874 6.41053 32.1874 4.68749C32.1874 2.96445 33.5894 1.5625 35.3124 1.5625Z" fill="black"/>
</g>
<defs>
<clipPath id="clip0_2103_290">
<rect width="40" height="40" fill="white"/>
</clipPath>
</defs>
</svg>
