<svg width="40" height="40" viewBox="0 0 40 40" fill="none" xmlns="http://www.w3.org/2000/svg">
<path d="M36.2439 2.42448C36.2439 2.31648 36.1999 2.21648 36.1239 2.14448C36.0479 2.07248 35.9479 2.02848 35.8399 2.03248L32.7079 2.08048C32.6552 2.08099 32.6032 2.092 32.5548 2.11289C32.5064 2.13377 32.4627 2.1641 32.4262 2.2021C32.3897 2.2401 32.3611 2.285 32.3422 2.33417C32.3232 2.38335 32.3143 2.43581 32.3159 2.48848L32.3279 3.23648C30.2679 2.97248 28.8799 2.76848 27.8559 2.61648C26.4959 2.41248 25.7479 2.30448 24.8439 2.26848C23.2199 2.20848 22.6479 2.38448 21.1799 4.15248C20.7719 4.64448 19.9839 5.48448 19.2879 6.22848C18.7839 6.76448 18.3119 7.27248 18.0559 7.56848C17.6639 8.02048 16.6239 9.22048 17.4119 10.4045C17.7799 10.9605 18.4079 11.9445 18.9239 12.7525C19.1719 13.1405 19.3919 13.4885 19.5439 13.7245C19.9119 14.2965 20.3959 14.5445 20.8599 14.5885C20.7279 14.8365 20.6199 15.1125 20.5519 15.4045C20.4319 15.9125 20.4319 16.4245 20.5439 16.8965C20.2013 16.9475 19.8734 17.0704 19.5818 17.2573C19.2902 17.4441 19.0414 17.6906 18.8519 17.9805C18.3519 18.7485 18.3319 19.7365 18.7759 20.5245L16.2159 24.4645C16.1679 24.5405 16.1439 24.6285 16.1519 24.7165L16.2479 25.9125C16.2599 26.0365 16.3239 26.1485 16.4279 26.2165C16.4919 26.2605 16.5679 26.2805 16.6439 26.2805C16.6879 26.2805 16.7319 26.2725 16.7759 26.2565L17.9079 25.8605C18.0399 25.8165 18.1359 25.7045 18.1679 25.5685L18.2839 25.0365L18.8199 24.5765C18.8839 24.5245 18.9279 24.4485 18.9479 24.3685L19.1759 23.4525L19.7839 23.0565C19.8599 23.0085 19.9159 22.9365 19.9439 22.8485L20.2199 22.0405L20.5879 21.7445C20.7639 21.7685 20.9399 21.7685 21.1199 21.7565L20.8239 25.7725C20.8159 25.8605 20.8399 25.9485 20.8879 26.0205L21.5519 27.0245C21.6199 27.1285 21.7319 27.1925 21.8559 27.2045H21.8839C21.9959 27.2045 22.1039 27.1565 22.1839 27.0725L22.9839 26.1765C23.0759 26.0725 23.1079 25.9285 23.0679 25.7965L22.9159 25.2765L23.1639 24.6165C23.1919 24.5405 23.1959 24.4525 23.1759 24.3725L22.9359 23.4605L23.2759 22.8205C23.3159 22.7405 23.3319 22.6525 23.3159 22.5645L23.1679 21.7245L23.3479 21.2885C23.7787 21.1193 24.1532 20.8323 24.4284 20.4602C24.7036 20.088 24.8684 19.6459 24.9039 19.1845C24.9439 18.6445 24.8079 18.1245 24.5199 17.6765C24.7799 17.3245 24.9799 16.9165 25.0879 16.4645C25.1439 16.2325 25.1639 15.9965 25.1679 15.7645C25.3839 15.6805 25.6039 15.5485 25.8279 15.3405C26.4319 14.7725 27.2199 13.8525 27.9839 12.9565C28.7959 12.0085 29.8039 10.8245 30.1399 10.6645C30.6119 10.4365 31.7679 10.2525 32.4239 10.1685L32.4399 11.3085C32.4399 11.5285 32.6239 11.7005 32.8399 11.7005H32.8479L35.9799 11.6525C36.1999 11.6525 36.3759 11.4685 36.3719 11.2445L36.2319 2.41648L36.2439 2.42448ZM22.3679 11.9965L22.3159 11.9005C21.6719 10.6885 21.1159 9.64048 21.4439 9.41248C21.9039 9.08848 22.3479 8.79648 22.7399 8.53648C23.1879 8.24048 23.5719 7.98848 23.8359 7.78448C24.1199 7.56448 24.3439 7.39648 24.9639 8.15648C25.6639 9.01648 25.5799 9.47648 25.1959 9.97648C24.8079 10.4845 24.2839 11.4485 23.8239 12.3005C23.6519 12.6205 23.4879 12.9165 23.3479 13.1685C23.0959 13.1245 22.8439 13.1325 22.5959 13.1845C22.6479 12.8205 22.5919 12.4165 22.3679 11.9925V11.9965ZM23.9799 17.0805C23.5999 16.7805 23.1359 16.6005 22.6439 16.5605C22.1799 16.5245 21.7399 16.6245 21.3519 16.8245C21.2439 16.4445 21.2319 16.0125 21.3319 15.5885C21.5599 14.6125 22.2919 13.9325 23.0359 13.9445C22.9799 14.5045 23.2399 15.1485 23.7319 15.5445C23.9119 15.6885 24.1319 15.8005 24.3759 15.8485C24.3679 15.9965 24.3479 16.1405 24.3159 16.2885C24.2479 16.5805 24.1319 16.8445 23.9799 17.0805ZM20.5679 20.9405C20.4479 20.9165 20.3279 20.9445 20.2319 21.0205L19.6359 21.5045C19.5759 21.5525 19.5319 21.6165 19.5079 21.6885L19.2399 22.4765L18.6159 22.8805C18.5319 22.9365 18.4719 23.0205 18.4479 23.1165L18.2119 24.0605L17.6719 24.5245C17.6039 24.5805 17.5599 24.6565 17.5399 24.7405L17.4439 25.1845L17.0079 25.3365L16.9639 24.7925L19.5879 20.7525C19.6799 20.6125 19.6719 20.4325 19.5759 20.3005C19.3805 20.0289 19.2711 19.7049 19.2619 19.3705C19.2526 19.036 19.3439 18.7065 19.5239 18.4245C19.7239 18.1165 20.0159 17.8925 20.3479 17.7725C20.1639 18.0885 20.0439 18.4485 20.0119 18.8365C19.9519 19.6765 20.3359 20.4845 20.9959 20.9805C20.8519 20.9885 20.7039 20.9805 20.5599 20.9485L20.5679 20.9405ZM22.9399 20.5925C22.8239 20.6285 22.7319 20.7125 22.6839 20.8245L22.3919 21.5365C22.3639 21.6045 22.3559 21.6845 22.3679 21.7565L22.5119 22.5765L22.1639 23.2325C22.1159 23.3205 22.1039 23.4245 22.1319 23.5205L22.3799 24.4605L22.1279 25.1285C22.0959 25.2085 22.0959 25.3005 22.1199 25.3805L22.2479 25.8165L21.9399 26.1605L21.6399 25.7045L21.9919 20.9005C22.0039 20.7365 21.9119 20.5805 21.7639 20.5085C21.461 20.3655 21.2084 20.1342 21.0393 19.8452C20.8701 19.5561 20.7922 19.2226 20.8159 18.8885C20.8486 18.4507 21.0534 18.0436 21.3855 17.7565C21.7176 17.4694 22.15 17.3255 22.5879 17.3565C22.8959 17.3805 23.1799 17.4885 23.4239 17.6645C23.3559 17.7125 23.2879 17.7565 23.2199 17.7925C23.1959 17.7525 23.1679 17.7125 23.1399 17.6765C22.9999 17.5125 22.8039 17.4165 22.5879 17.4005C22.1399 17.3685 21.7559 17.7045 21.7239 18.1485C21.6919 18.5925 22.0279 18.9805 22.4719 19.0125H22.5319C22.7239 19.0125 22.9119 18.9445 23.0599 18.8165C23.1159 18.7685 23.1599 18.7125 23.1999 18.6525C23.4599 18.5765 23.7119 18.4525 23.9519 18.2805C24.0839 18.5445 24.1479 18.8325 24.1239 19.1325C24.0981 19.4665 23.972 19.785 23.7622 20.0462C23.5523 20.3074 23.2685 20.4992 22.9479 20.5965L22.9399 20.5925ZM29.7999 9.95248C29.3359 10.1765 28.5799 11.0445 27.3839 12.4445C26.6359 13.3205 25.8599 14.2285 25.2879 14.7645C24.9039 15.1245 24.5519 15.1765 24.2359 14.9245C23.9039 14.6565 23.7319 14.1085 23.8919 13.8365C24.0679 13.5405 24.2919 13.1245 24.5319 12.6845C24.9799 11.8605 25.4879 10.9245 25.8359 10.4645C26.5199 9.56848 26.4439 8.70448 25.5879 7.65248C24.8199 6.70848 24.1319 6.55248 23.3519 7.15248C23.1119 7.33648 22.7359 7.58448 22.3039 7.87248C21.9079 8.13648 21.4559 8.43248 20.9879 8.76048C20.0799 9.39648 20.6879 10.5445 21.6119 12.2805L21.6599 12.3765C21.9879 12.9965 21.7679 13.4885 21.3999 13.7005C21.0879 13.8805 20.5919 13.8885 20.2119 13.2965C20.0599 13.0605 19.8399 12.7125 19.5919 12.3245C19.0759 11.5125 18.4439 10.5245 18.0719 9.96448C17.7519 9.48048 17.9199 8.94048 18.6559 8.09248C18.8999 7.80848 19.3719 7.30848 19.8679 6.77648C20.5719 6.02448 21.3679 5.17248 21.7879 4.66448C23.1159 3.06848 23.4799 3.02048 24.8039 3.06848C25.6639 3.10048 26.3959 3.20848 27.7279 3.40848C28.7759 3.56448 30.1999 3.77648 32.3319 4.04848L32.4159 9.37248C31.8639 9.44048 30.4479 9.63648 29.7959 9.95248H29.7999ZM33.2439 10.9045L33.1159 2.87648L35.4479 2.84048L35.5759 10.8685L33.2439 10.9045Z" fill="black"/>
<path d="M27.932 25.4487C27.036 25.3327 25.96 25.5927 24.736 26.2207C23.812 26.6927 21.336 28.1407 20.392 28.6967C20.288 28.4567 20.12 28.2167 19.892 27.9927C19.268 27.3887 18.44 27.1807 17.484 26.9367C16.684 26.7327 15.776 26.5047 14.72 26.0007C12.596 24.9887 11.168 26.1647 8.31599 28.5047C8.08399 28.6927 7.83999 28.8927 7.58799 29.1007L7.03199 28.1927C6.91599 28.0047 6.67199 27.9447 6.47999 28.0607L3.80799 29.6927C3.71599 29.7487 3.65199 29.8367 3.62799 29.9407C3.60399 30.0447 3.61999 30.1527 3.67599 30.2447L8.27999 37.7767C8.31553 37.8351 8.36545 37.8834 8.42497 37.9171C8.48449 37.9507 8.55163 37.9685 8.61999 37.9687C8.69199 37.9687 8.76399 37.9487 8.82799 37.9087L11.5 36.2767C11.592 36.2207 11.656 36.1327 11.68 36.0287C11.704 35.9247 11.688 35.8167 11.632 35.7247L10.92 34.5607L12.84 33.4087C13.444 33.4007 16.432 33.3727 18.128 33.4287C20.06 33.4887 21.464 32.5807 22.636 31.7167C23.252 31.2647 24.432 30.5127 25.576 29.7847C26.796 29.0087 27.952 28.2727 28.428 27.8967C29.028 27.4247 29.296 26.8327 29.152 26.3087C29.076 26.0367 28.816 25.5567 27.932 25.4447V25.4487ZM8.75599 37.0207L4.56799 30.1687L6.55599 28.9527L10.744 35.8047L8.75599 37.0207ZM27.932 27.2727C27.488 27.6247 26.296 28.3807 25.148 29.1127C23.996 29.8487 22.8 30.6087 22.164 31.0767C21.052 31.8967 19.812 32.6847 18.156 32.6327C16.256 32.5687 12.76 32.6127 12.724 32.6127C12.652 32.6127 12.584 32.6327 12.524 32.6687L10.508 33.8807L8.00799 29.7927C8.29199 29.5607 8.56399 29.3367 8.81999 29.1247C11.572 26.8647 12.712 25.9287 14.372 26.7207C15.496 27.2567 16.488 27.5087 17.284 27.7087C18.2 27.9407 18.86 28.1087 19.332 28.5647C19.66 28.8807 19.784 29.2047 19.676 29.4607C19.556 29.7407 19.172 29.9207 18.74 29.9087C17.572 29.8727 14.48 29.7167 13.924 29.6447C13.704 29.6167 13.504 29.7687 13.476 29.9887C13.448 30.2087 13.6 30.4087 13.82 30.4367C14.412 30.5167 17.504 30.6687 18.716 30.7087H18.792C19.54 30.7087 20.176 30.3487 20.416 29.7727C20.444 29.7047 20.464 29.6367 20.484 29.5687C20.924 29.3087 24.068 27.4567 25.1 26.9287C26.168 26.3847 27.108 26.1447 27.832 26.2367C28.14 26.2767 28.348 26.3807 28.384 26.5207C28.428 26.6767 28.304 26.9767 27.936 27.2687L27.932 27.2727Z" fill="black"/>
</svg>
