<svg width="40" height="40" viewBox="0 0 40 40" fill="none" xmlns="http://www.w3.org/2000/svg">
<g clip-path="url(#clip0_2103_310)">
<path d="M35.2489 14.375H33.7501C33.7501 6.79315 27.582 0.625027 20.0001 0.625027C18.0131 0.621068 16.0492 1.05198 14.2464 1.88753C14.1639 1.88253 14.0826 1.87503 13.9989 1.87503H4.75137C4.16035 1.87573 3.57637 2.00322 3.03884 2.24892C2.50132 2.49461 2.02277 2.85277 1.6355 3.29922C1.24823 3.74567 0.96126 4.27002 0.793965 4.83686C0.62667 5.4037 0.582944 5.99984 0.66574 6.58503L1.43887 11.995C1.73449 14.0644 3.53387 15.625 5.62512 15.625H6.31011C6.67136 19.6475 8.75512 23.2625 12.0964 25.6119C13.1442 26.3473 13.9618 27.3651 14.4539 28.5469C14.2353 28.721 14.0585 28.9419 13.9367 29.1934C13.8149 29.4449 13.7511 29.7206 13.7501 30C13.7501 30.48 13.9314 30.9182 14.2289 31.25C13.9314 31.5819 13.7501 32.02 13.7501 32.5C13.7501 32.98 13.9314 33.4182 14.2289 33.75C14.0137 33.989 13.864 34.2796 13.7941 34.5935C13.7243 34.9074 13.7367 35.234 13.8302 35.5417C13.9237 35.8494 14.0951 36.1278 14.3277 36.3497C14.5604 36.5717 14.8465 36.7299 15.1582 36.8088C15.4334 37.5607 15.9328 38.21 16.5889 38.669C17.2451 39.1279 18.0263 39.3744 18.827 39.375H21.1732C21.9739 39.3744 22.7552 39.1279 23.4113 38.669C24.0674 38.21 24.5668 37.5607 24.842 36.8088C25.1537 36.7299 25.4398 36.5717 25.6725 36.3497C25.9052 36.1278 26.0766 35.8494 26.1701 35.5417C26.2635 35.234 26.276 34.9074 26.2061 34.5935C26.1363 34.2796 25.9865 33.989 25.7714 33.75C26.0689 33.4182 26.2501 32.98 26.2501 32.5C26.2501 32.02 26.0689 31.5819 25.7714 31.25C26.08 30.9069 26.2505 30.4615 26.2501 30C26.2492 29.7206 26.1854 29.4449 26.0635 29.1935C25.9415 28.9421 25.7646 28.7213 25.5457 28.5475C25.6264 28.3557 25.7145 28.1682 25.8114 27.9857C26.1586 28.0769 26.5161 28.1238 26.8751 28.125H28.7501V30C28.7498 30.1238 28.7863 30.2448 28.855 30.3477C28.9236 30.4507 29.0213 30.5309 29.1356 30.5783C29.2499 30.6256 29.3757 30.6379 29.497 30.6136C29.6183 30.5894 29.7297 30.5296 29.817 30.4419L32.1339 28.125H34.3751C36.4664 28.125 38.2657 26.5644 38.5607 24.4944L39.3339 19.0838C39.4165 18.4987 39.3726 17.9028 39.2053 17.3361C39.0379 16.7695 38.751 16.2453 38.3638 15.799C37.9766 15.3527 37.4982 14.9947 36.9608 14.749C36.4235 14.5034 35.8397 14.3758 35.2489 14.375ZM2.67699 11.8175L1.90387 6.40815C1.8461 6.00027 1.87653 5.58474 1.9931 5.18963C2.10967 4.79451 2.30966 4.42901 2.57958 4.11781C2.84949 3.8066 3.18304 3.55693 3.5577 3.38566C3.93236 3.2144 4.33941 3.12552 4.75137 3.12503H13.9995C14.4114 3.12559 14.8183 3.21454 15.1929 3.38585C15.5674 3.55716 15.9009 3.80685 16.1707 4.11806C16.4405 4.42927 16.6404 4.79475 16.7568 5.18983C16.8733 5.5849 16.9036 6.00036 16.8457 6.40815L16.0732 11.8175C15.9691 12.526 15.6144 13.1737 15.0735 13.643C14.5325 14.1123 13.8412 14.372 13.1251 14.375H10.6251C10.4594 14.375 10.3004 14.4409 10.1832 14.5581C10.066 14.6753 10.0001 14.8343 10.0001 15V15.9913L8.56699 14.5582C8.50905 14.5 8.44018 14.4539 8.36434 14.4225C8.28851 14.391 8.2072 14.3749 8.12512 14.375H5.62512C4.90899 14.372 4.2177 14.1123 3.67675 13.643C3.13581 13.1737 2.78108 12.526 2.67699 11.8175ZM12.8157 24.5894C9.80887 22.475 7.92011 19.2357 7.56324 15.625H7.86574L10.1826 17.9419C10.2703 18.0292 10.3817 18.0886 10.5031 18.1128C10.6244 18.1369 10.7501 18.1246 10.8645 18.0775C10.9787 18.0303 11.0763 17.9501 11.145 17.8473C11.2136 17.7445 11.2502 17.6236 11.2501 17.5V15.625H13.1251C15.2164 15.625 17.0157 14.0644 17.3107 11.9944L18.0826 6.58628C18.1961 5.78801 18.0731 4.97398 17.7287 4.24493C17.3843 3.51587 16.8338 2.90378 16.1451 2.4844C17.3899 2.07921 18.691 1.87354 20.0001 1.87503C26.8926 1.87503 32.5001 7.48253 32.5001 14.375C32.5001 18.4313 30.5126 22.25 27.1845 24.5894C25.9264 25.4734 24.9494 26.7008 24.3701 28.125H15.6301C15.0508 26.7008 14.0738 25.4734 12.8157 24.5894ZM21.1732 38.125H18.827C18.3752 38.1252 17.9307 38.0106 17.5353 37.7919C17.1399 37.5733 16.8065 37.2578 16.5664 36.875H23.4345C23.1942 37.2578 22.8607 37.5732 22.4652 37.7918C22.0697 38.0105 21.6251 38.1251 21.1732 38.125ZM24.3751 35.625H15.6251C15.4594 35.625 15.3004 35.5592 15.1832 35.442C15.066 35.3248 15.0001 35.1658 15.0001 35C15.0001 34.8343 15.066 34.6753 15.1832 34.5581C15.3004 34.4409 15.4594 34.375 15.6251 34.375H24.3751C24.5409 34.375 24.6998 34.4409 24.8171 34.5581C24.9343 34.6753 25.0001 34.8343 25.0001 35C25.0001 35.1658 24.9343 35.3248 24.8171 35.442C24.6998 35.5592 24.5409 35.625 24.3751 35.625ZM24.3751 33.125H15.6251C15.4594 33.125 15.3004 33.0592 15.1832 32.942C15.066 32.8248 15.0001 32.6658 15.0001 32.5C15.0001 32.3343 15.066 32.1753 15.1832 32.0581C15.3004 31.9409 15.4594 31.875 15.6251 31.875H24.3751C24.5409 31.875 24.6998 31.9409 24.8171 32.0581C24.9343 32.1753 25.0001 32.3343 25.0001 32.5C25.0001 32.6658 24.9343 32.8248 24.8171 32.942C24.6998 33.0592 24.5409 33.125 24.3751 33.125ZM24.3751 30.625H15.6251C15.4594 30.625 15.3004 30.5592 15.1832 30.442C15.066 30.3248 15.0001 30.1658 15.0001 30C15.0001 29.8343 15.066 29.6753 15.1832 29.5581C15.3004 29.4409 15.4594 29.375 15.6251 29.375H24.3751C24.5409 29.375 24.6998 29.4409 24.8171 29.5581C24.9343 29.6753 25.0001 29.8343 25.0001 30C25.0001 30.1658 24.9343 30.3248 24.8171 30.442C24.6998 30.5592 24.5409 30.625 24.3751 30.625ZM38.0964 18.9075L37.3232 24.3175C37.2191 25.026 36.8644 25.6737 36.3235 26.143C35.7825 26.6123 35.0912 26.872 34.3751 26.875H31.8751C31.793 26.8749 31.7117 26.891 31.6359 26.9225C31.56 26.9539 31.4912 27 31.4332 27.0582L30.0001 28.4913V27.5C30.0001 27.3343 29.9343 27.1753 29.8171 27.0581C29.6998 26.9409 29.5409 26.875 29.3751 26.875H26.8751C26.7739 26.875 26.6757 26.8563 26.5757 26.8463C26.9612 26.3772 27.4079 25.962 27.9039 25.6119C28.6766 25.0662 29.391 24.4423 30.0357 23.75H36.2501V22.5H31.0739C31.6487 21.7204 32.1399 20.8824 32.5395 20H36.2501V18.75H33.0251C33.3668 17.7377 33.589 16.6889 33.687 15.625H35.2495C35.6614 15.6255 36.0683 15.7144 36.4429 15.8856C36.8175 16.0569 37.151 16.3065 37.4208 16.6176C37.6907 16.9288 37.8906 17.2942 38.0072 17.6892C38.1237 18.0843 38.1541 18.4997 38.0964 18.9075Z" fill="black"/>
<path d="M16.25 20C16.25 18.9662 15.4088 18.125 14.375 18.125C13.3412 18.125 12.5 18.9662 12.5 20C12.5 21.0338 13.3412 21.875 14.375 21.875C15.4088 21.875 16.25 21.0338 16.25 20ZM13.75 20C13.75 19.8342 13.8158 19.6753 13.9331 19.5581C14.0503 19.4408 14.2092 19.375 14.375 19.375C14.5408 19.375 14.6997 19.4408 14.8169 19.5581C14.9342 19.6753 15 19.8342 15 20C15 20.1658 14.9342 20.3247 14.8169 20.4419C14.6997 20.5592 14.5408 20.625 14.375 20.625C14.2092 20.625 14.0503 20.5592 13.9331 20.4419C13.8158 20.3247 13.75 20.1658 13.75 20ZM20 21.875C21.0338 21.875 21.875 21.0338 21.875 20C21.875 18.9662 21.0338 18.125 20 18.125C18.9662 18.125 18.125 18.9662 18.125 20C18.125 21.0338 18.9662 21.875 20 21.875ZM20 19.375C20.1658 19.375 20.3247 19.4408 20.4419 19.5581C20.5592 19.6753 20.625 19.8342 20.625 20C20.625 20.1658 20.5592 20.3247 20.4419 20.4419C20.3247 20.5592 20.1658 20.625 20 20.625C19.8342 20.625 19.6753 20.5592 19.5581 20.4419C19.4408 20.3247 19.375 20.1658 19.375 20C19.375 19.8342 19.4408 19.6753 19.5581 19.5581C19.6753 19.4408 19.8342 19.375 20 19.375ZM25.625 21.875C26.6588 21.875 27.5 21.0338 27.5 20C27.5 18.9662 26.6588 18.125 25.625 18.125C24.5912 18.125 23.75 18.9662 23.75 20C23.75 21.0338 24.5912 21.875 25.625 21.875ZM25.625 19.375C25.7908 19.375 25.9497 19.4408 26.0669 19.5581C26.1842 19.6753 26.25 19.8342 26.25 20C26.25 20.1658 26.1842 20.3247 26.0669 20.4419C25.9497 20.5592 25.7908 20.625 25.625 20.625C25.4592 20.625 25.3003 20.5592 25.1831 20.4419C25.0658 20.3247 25 20.1658 25 20C25 19.8342 25.0658 19.6753 25.1831 19.5581C25.3003 19.4408 25.4592 19.375 25.625 19.375ZM6.875 6.25H15V7.5H6.875V6.25ZM3.75 10H15V11.25H3.75V10Z" fill="black"/>
</g>
<defs>
<clipPath id="clip0_2103_310">
<rect width="40" height="40" fill="white"/>
</clipPath>
</defs>
</svg>
